<?xml version="1.0" encoding="utf-8"?>
<!-- Generator: Adobe Illustrator 26.0.3, SVG Export Plug-In . SVG Version: 6.00 Build 0)  -->
<svg version="1.1" id="Laag_1" xmlns="http://www.w3.org/2000/svg" xmlns:xlink="http://www.w3.org/1999/xlink" x="0px" y="0px"
	 viewBox="0 0 500 500" style="enable-background:new 0 0 500 500;" xml:space="preserve">
<style type="text/css">
	.st0{fill:#FFFFFF;}
</style>
<g>
	<path class="st0" d="M450.2,394.4c-3.1-0.7-6.2-0.7-9.1-0.6c-0.8,0-1.5,0-2.3,0H119.1c-27.8,0-41.3-13.5-41.3-41.2V78.9
		c0.1-6.2-1.5-10.9-4.6-14c-2.8-2.8-6.8-4.2-11.9-4.1c-9.9,0.2-15.1,6.2-15.5,17.8c-0.1,2.6-0.1,5.1-0.1,7.6v266.2
		c0,45.9,27.4,73.4,73.2,73.5c34.9,0.1,70.5,0,104.8,0c17.5,0,34.9,0,52.4,0c53.2,0,108.3,0,162.5,0.1c0.6,0,1.2,0,1.9,0
		c0.7,0,1.3,0,2,0c2.4,0,4.9-0.1,7.4-0.6c7.9-1.6,12.7-7.4,12.8-15.4C462.9,402.2,458.3,396.3,450.2,394.4z"/>
	<path class="st0" d="M131.2,294.9c2.4,1.5,5,2.2,7.7,2.2c2.6,0,5.2-0.7,7.7-2.1c3.2-1.9,5.8-4.5,8.3-7c0.4-0.4,0.8-0.8,1.2-1.2
		c5.2-5.2,10.4-10.3,15.6-15.5c17-16.9,34.6-34.4,51.7-51.9c1.5-1.5,3.6-3.5,4.9-3.5c0.7,0,2.1,0.5,4.6,3.1
		c12.8,13,26.1,25.9,38.9,38.4c6,5.8,12.2,11.8,18.3,17.8c12.7,12.3,19.1,12.3,31.5,0.1c12.5-12.4,25.2-25.1,37.4-37.4
		c6.2-6.2,12.3-12.3,18.5-18.5l52.1-52.1c3.8-3.8,10.9-10.9,5.5-21c-3.2-6.1-7.6-7.9-10.8-8.4c-5.4-0.8-11.3,1.7-16.8,7.1
		c-31.6,31.3-64.4,63.6-96.2,95.7c-2.6,2.6-4.3,3.8-5.6,3.8c0,0,0,0,0,0c-1.2,0-3.1-1.2-5.4-3.6c-16.7-17.4-34.1-34.5-51-51
		l-7.3-7.2c-9.6-9.4-16.6-9.5-25.8-0.4c-16.6,16.4-33.4,33.3-49.6,49.5c-12.4,12.4-24.9,24.9-37.3,37.3c-2.9,2.9-5.7,6.4-5.5,11.3
		C123.5,286.5,126.3,291.9,131.2,294.9z"/>
</g>
</svg>
