<?xml version="1.0" encoding="utf-8"?>
<!-- Generator: Adobe Illustrator 26.0.3, SVG Export Plug-In . SVG Version: 6.00 Build 0)  -->
<svg version="1.1" id="Laag_1" xmlns="http://www.w3.org/2000/svg" xmlns:xlink="http://www.w3.org/1999/xlink" x="0px" y="0px"
	 viewBox="0 0 240 240" style="enable-background:new 0 0 240 240;" xml:space="preserve">
<style type="text/css">
	.st0{fill:#FFFFFF;}
</style>
<path class="st0" d="M120,0C53.7,0,0,53.7,0,120s53.7,120,120,120s120-53.7,120-120S186.3,0,120,0z M177.2,78
	c-0.3,4.9-3.1,21.8-5.9,40.2l-8.7,54.5c0,0-0.7,8-6.6,9.4c-5.9,1.4-15.6-4.9-17.3-6.2c-1.4-1-26-16.6-35-24.3
	c-2.4-2.1-5.2-6.2,0.3-11.1c12.5-11.4,27.4-25.7,36.4-34.7c4.2-4.2,8.3-13.9-9-2.1l-48.9,32.9c0,0-5.5,3.5-16,0.3
	c-10.4-3.1-22.5-7.3-22.5-7.3s-8.3-5.2,5.9-10.8l80.8-33.3c8-3.5,35-14.6,35-14.6S178.3,66.2,177.2,78z"/>
</svg>
